<?xml version="1.0" encoding="utf-8"?>
<!-- Generator: Adobe Illustrator 26.0.3, SVG Export Plug-In . SVG Version: 6.00 Build 0)  -->
<svg version="1.1" id="Layer_2" xmlns="http://www.w3.org/2000/svg" xmlns:xlink="http://www.w3.org/1999/xlink" x="0px" y="0px"
	 viewBox="0 0 1920 1920" style="enable-background:new 0 0 1920 1920;" xml:space="preserve">
<style type="text/css">
	.st0{fill:none;stroke:#3CFFA4;stroke-width:230;stroke-miterlimit:10;}
	.st1{fill:#3CFFA4;stroke:#3CFFA4;stroke-miterlimit:10;}
</style>
<path class="st0" d="M245.5,1314v183.08c0,134.52,109.05,243.58,243.58,243.58h212.88c103.95,0,188.22-84.27,188.22-188.22V1367.4
	c0-111.42-90.32-201.74-201.74-201.74h-1.55c-243.77,0-441.38-197.61-441.38-441.38V392.13c0-112.16,90.92-203.08,203.08-203.08
	h233.66c175.04,0,316.94,141.9,316.94,316.94v40.57c0,175.04,141.9,316.94,316.94,316.94h367.46"/>
<path class="st1" d="M1459.98,751l110.02-1V640C1570,640,1566.98,751,1459.98,751z"/>
<path class="st0" d="M1684,73v1303.16c0,200.39-158.1,362.84-353.13,362.84H1086"/>
<path class="st1" d="M1461.98,978H1572v110C1572,1088,1568.98,978,1461.98,978z"/>
<path class="st1" d="M1086,1854v-230c0,0-9.06,133.72-132.19,230H1086z"/>
</svg>
